<svg xmlns="http://www.w3.org/2000/svg" viewBox="0 0 594 594" style="enable-background:new 0 0 594 594" xml:space="preserve">
    <style>
        .climber {
            fill: #000;
        }
        @media (prefers-color-scheme: dark) {
            .climber {
                fill: #fff;
            }
        }
    </style>
    <path style="fill:#9c5ea1" d="M497.12 594.32h91.91c3.72 0 6.13-3.91 4.47-7.24l-46.38-92.76-50 100z"/>
    <path style="fill:#5972aa" d="m447.12 494.32-50 100h100l50-100z"/>
    <path style="fill:#009c56" d="m347.12 494.32-50 100h100l50-100z"/>
    <path style="fill:#f8e600" d="m247.12 494.32-50 100h100l50-100z"/>
    <path style="fill:#ffa22a" d="m147.12 494.32-50 100h100l50-100z"/>
    <path style="fill:#f53641" d="M47.12 494.32.74 587.08c-1.66 3.32.76 7.24 4.47 7.24h91.91l50-100h-100z"/>
    <path style="fill:#eaeaea" d="m97.31 394.32-50 100h100l50-100z"/>
    <path style="fill:#ffc3d7" d="m147.31 294.32-50 100h100l50-100z"/>
    <path style="fill:#85dfef" d="m197.12 194.32-50 100h100l50-100z"/>
    <path style="fill:#8a694e" d="m246.84 94.32-50 100h100l50-100z"/>
    <path style="fill:#3f3f3f" d="M247.12 94.32h100L301.6 3.26c-1.84-3.69-7.1-3.69-8.94 0l-45.54 91.06z"/>
    <path class="climber" d="M266.32 361.35c-.51.97-1.02 1.93-1.52 2.9-.4.78-.73 1.61-1.19 2.36-6.02 9.8-12.02 19.62-18.11 29.37-2.08 3.33-4.31 6.6-6.72 9.69-.68.87-2.22 1.15-3.43 1.47-1.21.32-2.6.12-3.72.6-.6.26-.93 1.43-1.14 2.25-.58 2.27-.66 4.75-1.62 6.83-1.17 2.53-3.65 3.44-6.28 2.7-4.8-1.34-9.23-1.54-14.12.61-3.65 1.6-8.14.74-12.01-.85-2.33-.95-4.79-2.06-6.55-3.76-1.82-1.75-1.25-3.59 1.48-4.2 6.48-1.43 11.24-5.91 16.91-8.73 3.2-1.59 6.66-2.65 10.06-3.81 1.46-.5 2.45-1.11 3.05-2.68.44-1.16 1.65-2.02 2.47-3.05.88-1.1 1.69-2.26 2.56-3.37 2.12-2.73 4.37-5.36 6.36-8.18 4.65-6.57 9.17-13.2 11.03-21.27.97-4.21 2.09-8.47 3.89-12.37 1.69-3.68 4.04-7.17 6.67-10.27 4.64-5.48 9.68-10.61 14.6-15.84 1.41-1.5 2.78-3.2 4.53-4.17 4.6-2.55 4.96-7.54 7.05-11.52.2-.39-.5-1.55-1.06-2-3.55-2.84-7.19-5.57-10.77-8.38-2.31-1.81-4.57-3.69-6.63-5.37-3.14 3.83-6.65 8.17-10.22 12.46-2.45 2.95-5.04 5.8-7.46 8.78-2.1 2.6-4.02 5.34-6.08 7.97-.89 1.14-1.96 2.03-3.28.72-1.26 2.95-2.22 5.98-3.77 8.67-2.18 3.8-6.67 4.2-8.11.34-1.78-4.76-6.03-5.57-9.16-8.15-.18-.15-.5-.14-.64-.31-.94-1.08-1.85-2.18-2.77-3.28 1.05-.7 2.03-1.57 3.17-2.06 3-1.31 6.06-2.49 9.13-3.64.74-.28 1.6-.26 1.82-.69.73-1.41 1.31-2.94 2.23-4.22 3.71-5.13 7.54-10.16 11.28-15.26 2.28-3.11 4.56-6.22 6.67-9.44 2.72-4.15 5.55-8.27 6.74-13.23.57-2.36 3.56-4.52 6.63-4.19 3.8.41 7.71.93 11.26 2.26 4.98 1.86 9.69 4.43 14.46 6.83 4.16 2.09 8.24 4.35 12.35 6.56 1.19.64 2.09.89 2.48-.91.13-.61.88-1.09 1.34-1.64.44-.52 1.27-1.11 1.22-1.58-.24-2.14 1.29-2.45 2.67-3.16.77-.39 1.77-1.2 1.85-1.92 1.08-9.25 4.72-17.7 8.3-26.13.94-2.22 2.9-4.01 4.38-6 .46-.62.9-1.27 1.46-2.06-9.07-1.3-16.67-5.43-24.07-10.01-1.51-.93-2.87-2.12-4.2-3.29-1.05-.92-1.91-1.71-3.52-2.01-1.08-.2-1.95-2.4-2.57-3.85-.76-1.8-.98-3.82-1.73-5.63-2.33-5.6-4.62-11.19-8.89-15.78-1.36-1.47-1.73-3.9-2.41-5.93-.45-1.36-.8-2.48-2.61-2.61-.75-.05-1.43-1.11-2.2-1.76 1.17-1.54 4.09-2.69.59-4.44 2.92-1.83 8.61-.3 9.49 2.77 1.49 5.22 4.31 9.31 8.72 12.39.45.31.74.85 1.07 1.31 2.17 3.04 4.49 5.64 7.98 7.58 3.73 2.07 6.61 5.66 9.91 8.51.55.47 1.39.79 2.12.84 6.61.5 12.94 1.83 19.01 4.71 2.15 1.02 5.01.54 7.43.74.17-3.01.3-5.38.41-7.74.02-.35.01-.93-.18-1.03-2.37-1.23-.66-2.35-.24-3.84.81-2.89 1.9-6.28 1.1-8.93-1.34-4.46.95-6.73 3.64-8.98 1.43-1.2 1.73-2.25 1.4-3.95-.61-3.22-1.02-6.47-1.53-9.82-1.17-.49-2.57-.89-3.75-1.64-1.86-1.17-1.74-4.27.01-5.51.71-.51 1.26-1.25 1.86-1.9.7-.75 1.25-1.96 2.08-2.18 2.04-.55 2.21-1.95 2.33-3.59.32-4.35.87-8.69.9-13.04.01-1.54-1.11-3.16-1.94-4.62-.73-1.3-1.86-2.37-2.66-3.64-1.43-2.26-3.02-2.82-5.23-1.52-1.46.86-2.25.62-3.02-.95-2.13-4.36-.98-8.43 1.02-12.34 1.23-2.41 5.45-2.82 8.16-.56 2.71 2.25 5.13 4.91 7.36 7.64 1.61 1.97 2.61 4.43 4.08 6.54.82 1.18 1.93 2.23 3.09 3.09 1.2.88 2.64 4.83 1.81 6.07-.31.47-1.13.6-2.04 1.03.68 3.46 1.17 7.13 2.19 10.65.59 2.01 1.97 3.82 3.14 5.62 1.81 2.78 1.59 4.32-1.16 6.28 1.17 3.6 2.34 7.24 3.6 11.12 1.12-.57 2.14-1.17 3.21-1.62 2.24-.93 4.71.07 4.51 2.26-.51 5.42 2.02 10.31 2.1 15.56.04 2.38.34 4.87-.23 7.12-.49 1.93-2.07 3.58-2.82 4.81l3.72 8c.13.29.2.7.43.83 3.53 2.03 3.92 5.66 4.68 9.1.75 3.41 1.47 6.83 2.17 10.26.78 3.88-.86 6.5-3.73 9.15-2.77 2.56-5.9 3.96-9.15 5.54-1.69.82-2.64 3.21-3.83 4.96-.43.64-.42 1.59-.87 2.23-2.88 4.1-2.5 8.39-.81 12.75 1.04 2.69 1.38 5.18-.79 7.62-.47.53-.2 1.95.06 2.88 1.4 5.1 1.75 10.27.7 15.42-.59 2.88-1.7 5.69-2.81 8.43-1.68 4.13-3.5 8.2-5.42 12.22-.7 1.47-1.73 2.86-2.88 4.02-.44.44-1.78.43-2.47.12-7.31-3.33-13.73-7.69-17.05-15.45-.18-.41-.53-.75-1.06-1.49-.52 1.07-.89 1.83-1.24 2.59-3.07 6.58-6.65 12.98-12.93 16.82-4.64 2.84-9.97 4.61-15.14 6.47-2.67.96-4.98 1.88-7.03 4.13-2.47 2.72-5.77 4.68-8.71 6.97-4.64 3.63-9.39 7.13-13.89 10.93-2.77 2.34-2.6 2.54-2.26 5.97-.28-.02-.51-.05-.75-.08z"/>
</svg>